<?xml version="1.0" encoding="utf-8"?>
<!-- Generator: Adobe Illustrator 16.0.0, SVG Export Plug-In . SVG Version: 6.00 Build 0)  -->
<!DOCTYPE svg PUBLIC "-//W3C//DTD SVG 1.1//EN" "http://www.w3.org/Graphics/SVG/1.1/DTD/svg11.dtd">
<svg version="1.1" id="图层_1" xmlns="http://www.w3.org/2000/svg" xmlns:xlink="http://www.w3.org/1999/xlink" x="0px" y="0px"
	 width="841.89px" height="595.28px" viewBox="0 0 841.89 595.28" enable-background="new 0 0 841.89 595.28" xml:space="preserve">
<polyline fill="none" stroke="#EA5504" stroke-miterlimit="10" points="2406.106,1703.717 2401.417,1700.583 1126.666,1700.583 
	1082,1667 "/>
<circle fill="none" stroke="#EA5504" stroke-miterlimit="10" cx="2410.22" cy="1706.466" r="4.947"/>
<polyline fill="none" stroke="#EA5504" stroke-miterlimit="10" points="1374.249,2267.897 1376.251,2269.235 1520.535,2269.235 "/>
<circle fill="none" stroke="#EA5504" stroke-miterlimit="10" cx="1371.45" cy="2266.638" r="2.804"/>
<line fill="none" stroke="#EA5504" stroke-miterlimit="10" x1="2759.181" y1="2410.265" x2="2741.188" y2="2410.265"/>
<path fill="none" stroke="#EA5504" stroke-miterlimit="10" d="M2741.188,2410.265c0,7.288-5.905,13.193-13.188,13.193
	c-7.294,0-13.199-5.905-13.199-13.193c0-7.289,5.905-13.194,13.199-13.194C2735.282,2397.07,2741.188,2402.976,2741.188,2410.265z"
	/>
<circle fill="none" stroke="#EA5504" stroke-miterlimit="10" cx="2765.023" cy="2459.036" r="2.604"/>
<g>
	<path fill="#9F9794" d="M225.486,384.609h-8.181v-38.943h17.771c2.703,0,4.943,0.122,6.708,0.351
		c1.771,0.241,3.342,0.79,4.715,1.661c1.802,1.013,3.158,2.504,4.062,4.459c0.901,1.963,1.35,4.064,1.35,6.313
		c0,1.995-0.346,3.881-1.049,5.659c-0.707,1.779-1.72,3.163-3.034,4.158c-1.322,0.998-2.494,1.636-3.521,1.906
		c-1.034,0.272-1.846,0.47-2.467,0.593c-0.612,0.13-1.226,0.194-1.84,0.194h-4.602h-9.911V384.609z M234.963,352.655h-9.477v11.428
		h9.911c4.946,0,7.422-1.896,7.422-5.687c0-2.279-0.698-3.803-2.084-4.577C239.34,353.039,237.42,352.655,234.963,352.655z"/>
	<path fill="#9F9794" d="M293.265,345.666v6.664h-13.437c-2.38,0-4.279,0.565-5.688,1.701c-1.407,1.143-2.305,2.405-2.704,3.792
		c-0.399,1.392-0.689,2.677-0.867,3.849c-0.181,1.172-0.271,2.337-0.271,3.491v0.704v0.599c0,0.505,0.012,1.052,0.052,1.653
		c0.038,0.592,0.106,1.313,0.219,2.167c0.103,0.847,0.347,1.755,0.727,2.735c0.375,0.972,0.911,1.875,1.6,2.705
		c0.898,0.939,1.868,1.527,2.909,1.76c1.048,0.238,2.398,0.352,4.06,0.352h13.4v6.771h-13.717c-2.588,0-4.794-0.223-6.611-0.677
		c-1.813-0.452-3.642-1.36-5.476-2.737c-2.195-1.875-3.752-4.133-4.672-6.77c-0.913-2.632-1.376-5.488-1.376-8.559v-2.327
		c0-1.41,0.147-2.781,0.437-4.115c0.287-1.338,0.645-2.6,1.079-3.792c0.436-1.192,0.942-2.24,1.512-3.144
		c0.583-0.902,1.431-1.913,2.551-3.031c1.119-1.116,2.472-1.941,4.064-2.466c1.588-0.522,3.08-0.874,4.463-1.06
		c1.393-0.18,2.792-0.267,4.206-0.267H293.265z"/>
	<path fill="#9F9794" d="M401.562,384.609h-8.672l16.363-38.943h8.662l16.635,38.943h-9.107l-3.574-9.316h-16.951L401.562,384.609z
		 M407.577,368.414h11.643l-5.899-14.897L407.577,368.414z"/>
	<path fill="#9F9794" d="M441.436,356.555c0.832-2.852,1.951-4.968,3.361-6.342c1.408-1.37,2.705-2.37,3.895-3.004
		c1.189-0.631,2.445-1.118,3.766-1.459c1.316-0.347,2.5-0.57,3.551-0.678c1.043-0.114,2.254-0.165,3.623-0.165
		c2.602,0,4.656,0.191,6.152,0.57c1.498,0.378,2.525,0.658,3.086,0.839c0.561,0.184,1.354,0.551,2.381,1.11
		c1.033,0.562,1.945,1.273,2.736,2.14c1.844,1.769,3.178,4.072,4.006,6.901c0.83,2.837,1.246,5.739,1.246,8.695
		c0,2.93-0.416,5.84-1.246,8.75c-0.828,2.906-2.197,5.244-4.084,7.012c-1.896,1.77-4.127,2.962-6.689,3.576
		c-2.568,0.612-5.063,0.918-7.479,0.918s-4.744-0.268-6.988-0.81c-0.762-0.145-1.451-0.331-2.08-0.568
		c-0.631-0.233-1.42-0.609-2.361-1.111c-0.934-0.503-1.881-1.199-2.844-2.084c-0.949-0.882-1.77-1.925-2.432-3.112
		c-0.674-1.195-1.305-2.837-1.895-4.933c-0.598-2.092-0.898-4.674-0.898-7.746C440.242,362.061,440.641,359.225,441.436,356.555z
		 M449.777,359.357c-0.436,1.729-0.654,3.636-0.654,5.727c0,2.055,0.352,4.477,1.063,7.266c0.703,2.799,2.102,4.565,4.197,5.303
		c2.088,0.737,3.859,1.108,5.305,1.108c1.408,0,2.764-0.2,4.064-0.595c3.102-1.117,5.039-3.477,5.797-7.08
		c0.498-1.839,0.754-3.785,0.754-5.84c0-2.091-0.168-3.794-0.514-5.106s-0.574-2.157-0.711-2.517
		c-0.121-0.361-0.389-0.908-0.807-1.648c-0.414-0.736-1-1.447-1.758-2.132c-0.762-0.685-1.566-1.162-2.41-1.437
		c-0.854-0.271-1.621-0.455-2.305-0.563c-0.682-0.112-1.387-0.166-2.111-0.166c-1.336,0-2.654,0.203-3.955,0.596
		C452.916,353.281,450.93,355.642,449.777,359.357z"/>
	<path fill="#9F9794" d="M493.748,384.609h-6.441v-6.771h6.441V384.609z"/>
	<path fill="#9F9794" d="M529.645,345.666v6.664h-13.426c-2.381,0-4.277,0.565-5.691,1.701c-1.406,1.143-2.303,2.405-2.707,3.792
		c-0.396,1.392-0.684,2.677-0.863,3.849c-0.184,1.172-0.273,2.337-0.273,3.491v0.704v0.599c0,0.505,0.018,1.052,0.064,1.653
		c0.025,0.592,0.102,1.313,0.209,2.167c0.109,0.847,0.348,1.755,0.73,2.735c0.379,0.972,0.912,1.875,1.596,2.705
		c0.896,0.939,1.869,1.527,2.918,1.76c1.045,0.238,2.389,0.352,4.045,0.352h13.398v6.771h-13.697c-2.6,0-4.799-0.223-6.623-0.677
		c-1.811-0.452-3.639-1.36-5.477-2.737c-2.191-1.875-3.752-4.133-4.672-6.77c-0.912-2.632-1.373-5.488-1.373-8.559v-2.327
		c0-1.41,0.145-2.781,0.438-4.115c0.281-1.338,0.646-2.6,1.074-3.792c0.438-1.192,0.943-2.24,1.523-3.144
		c0.574-0.902,1.428-1.913,2.545-3.031c1.125-1.116,2.479-1.941,4.059-2.466c1.594-0.522,3.08-0.874,4.473-1.06
		c1.385-0.18,2.785-0.267,4.201-0.267H529.645z"/>
	<path fill="#9F9794" d="M536.232,356.555c0.832-2.852,1.945-4.968,3.355-6.342c1.414-1.37,2.711-2.37,3.9-3.004
		c1.189-0.631,2.443-1.118,3.766-1.459c1.316-0.347,2.494-0.57,3.549-0.678c1.049-0.114,2.258-0.165,3.623-0.165
		c2.6,0,4.652,0.191,6.152,0.57c1.494,0.378,2.523,0.658,3.086,0.839c0.561,0.184,1.357,0.551,2.383,1.11
		c1.027,0.562,1.936,1.273,2.738,2.14c1.84,1.769,3.172,4.072,4.006,6.901c0.828,2.837,1.244,5.739,1.244,8.695
		c0,2.93-0.416,5.84-1.244,8.75c-0.834,2.906-2.193,5.244-4.088,7.012c-1.898,1.77-4.129,2.962-6.686,3.576
		c-2.57,0.612-5.059,0.918-7.479,0.918c-2.418,0-4.746-0.268-6.986-0.81c-0.764-0.145-1.451-0.331-2.08-0.568
		c-0.641-0.233-1.424-0.609-2.365-1.111c-0.938-0.503-1.885-1.199-2.836-2.084c-0.961-0.882-1.773-1.925-2.441-3.112
		c-0.676-1.195-1.305-2.837-1.896-4.933c-0.598-2.092-0.9-4.674-0.9-7.746C535.033,362.061,535.438,359.225,536.232,356.555z
		 M544.572,359.357c-0.43,1.729-0.648,3.636-0.648,5.727c0,2.055,0.354,4.477,1.053,7.266c0.709,2.799,2.104,4.565,4.197,5.303
		c2.102,0.737,3.869,1.108,5.311,1.108c1.41,0,2.762-0.2,4.059-0.595c3.113-1.117,5.043-3.477,5.801-7.08
		c0.506-1.839,0.756-3.785,0.756-5.84c0-2.091-0.168-3.794-0.514-5.106c-0.348-1.313-0.584-2.157-0.703-2.517
		c-0.127-0.361-0.402-0.908-0.814-1.648c-0.414-0.736-1.002-1.447-1.758-2.132c-0.758-0.685-1.563-1.162-2.408-1.437
		c-0.852-0.271-1.621-0.455-2.309-0.563c-0.682-0.112-1.387-0.166-2.109-0.166c-1.336,0-2.65,0.203-3.947,0.596
		C547.719,353.281,545.727,355.642,544.572,359.357z"/>
	<path fill="#9F9794" d="M589.164,384.609h-8.398v-38.943h12.078l9.861,29.842l9.91-29.842h11.965v38.943h-8.068l0.646-30.277
		l-9.91,30.277h-8.721l-10.232-30.549L589.164,384.609z"/>
	<path fill="#9F9794" d="M336.75,367.386c-0.904-0.863-1.984-1.605-3.249-2.22c3.821-2.167,5.741-5.092,5.741-8.773
		c0-0.604-0.085-1.393-0.241-2.322c-0.035-0.161-0.073-0.32-0.114-0.478c-0.907-3.427-3.553-6.125-6.96-7.105
		c-0.659-0.19-1.28-0.337-1.861-0.438c-1.428-0.254-3.156-0.382-5.177-0.382h-19.98v38.942h21.391c1.914,0,3.567-0.153,4.958-0.461
		c1.385-0.306,2.451-0.652,3.191-1.028c0.745-0.379,1.572-0.957,2.491-1.734c0.922-0.776,1.565-1.976,1.926-3.601
		c0.354-1.624,0.539-2.977,0.539-4.063c0-1.301-0.215-2.464-0.647-3.493C338.32,369.201,337.655,368.255,336.75,367.386z
		 M329.043,376.675c-0.918,0.702-2.252,1.059-4.014,1.059H313.08v-9.209h11.949c3.595,0,5.383,1.551,5.383,4.656
		C330.413,374.809,329.956,375.97,329.043,376.675z M329.006,360.614c-0.936,0.687-2.28,1.031-4.005,1.031H313.08v-8.99h11.921
		c3.61,0,5.412,1.512,5.412,4.55C330.413,358.795,329.946,359.927,329.006,360.614z"/>
	<path fill="#9F9794" d="M381.814,367.386c-0.903-0.863-1.982-1.605-3.249-2.22c3.823-2.167,5.741-5.092,5.741-8.773
		c0-0.604-0.087-1.393-0.242-2.322c-0.004-0.019-0.009-0.037-0.012-0.055c-0.804-3.626-3.535-6.521-7.106-7.539
		c-0.643-0.184-1.249-0.326-1.816-0.427c-1.428-0.252-3.156-0.38-5.177-0.38h-19.981v38.939h21.392c1.915,0,3.567-0.153,4.957-0.462
		c1.385-0.307,2.45-0.651,3.191-1.027c0.744-0.38,1.57-0.957,2.489-1.734c0.923-0.776,1.566-1.978,1.927-3.601
		c0.354-1.625,0.536-2.979,0.536-4.062c0-1.302-0.212-2.466-0.648-3.495C383.385,369.201,382.718,368.255,381.814,367.386z
		 M374.105,376.675c-0.917,0.702-2.252,1.059-4.01,1.059h-11.95v-9.209h11.95c3.595,0,5.38,1.551,5.38,4.656
		C375.475,374.809,375.024,375.97,374.105,376.675z M374.068,360.614c-0.935,0.687-2.274,1.031-4.001,1.031h-11.922v-8.99h11.922
		c3.609,0,5.408,1.512,5.408,4.55C375.475,358.795,375.01,359.927,374.068,360.614z"/>
	<path fill="#3187C9" d="M254.21,290.091h-16.554c-0.363,0-0.703-0.195-0.885-0.509c-0.184-0.314-0.186-0.705-0.007-1.021
		l18.374-32.409c0.851-1.501,0.84-3.36-0.028-4.852c-0.869-1.491-2.48-2.417-4.207-2.417h-14.151c-0.36,0-0.697-0.192-0.88-0.502
		c-0.184-0.31-0.19-0.698-0.019-1.014l14.703-26.879c1.043-1.905,1.001-4.25-0.106-6.119c-1.108-1.869-3.145-3.029-5.317-3.029
		h-4.979c-1.786,0-3.424,0.974-4.276,2.542l-16.065,29.522l-0.068,0.125c-2.535,4.657-3.768,8.291-3.768,11.104
		c0,4.452,2.043,9.759,11.776,9.759l4.2-0.046l-9.027,15.981c-4.165,7.26-6.188,12.424-6.188,15.786
		c0,4.329,2.244,9.489,12.937,9.491h0.012l24.536-0.065c2.677-0.007,4.854-2.19,4.854-4.868v-5.712
		C259.079,292.274,256.895,290.091,254.21,290.091z"/>
	<path fill="#3187C9" d="M481.221,286.229c-2.555-2.39-5.721-3.601-9.408-3.601h-47.781c-3.519,0-6.53,1.193-8.945,3.547
		c-2.606,2.517-3.928,5.838-3.93,9.88l-0.138,21.661c0.003,3.826,1.24,7.078,3.677,9.664c2.45,2.617,5.963,3.943,10.441,3.943
		h46.883c3.666,0,6.701-1.177,9.021-3.495c2.596-2.584,3.914-6.133,3.914-10.55v-21.777
		C484.955,291.782,483.707,288.67,481.221,286.229z M470.207,301.655v11.266c0,2.202-0.957,3.101-3.307,3.101h-37.48
		c-3.209,0-3.65-1.393-3.65-2.897V301.52c0-1.51,0.324-2.539,0.93-3.031c0.057-0.043,0.623-0.421,3.068-0.421h36.299
		c1.807,0,3.012,0.411,3.43,0.862C469.852,299.296,470.207,300.281,470.207,301.655z"/>
	<path fill="#3187C9" d="M401.903,265.563H389.51c-6.929,0-12.565,5.64-12.565,12.572v30.267c0,2.832,2.303,5.135,5.135,5.135h5.106
		c2.831,0,5.135-2.303,5.135-5.135v-23.324c0-2.244,1.819-4.069,4.057-4.069h5.525c3.097,0,5.615-2.519,5.615-5.615v-4.214
		C407.518,268.082,405,265.563,401.903,265.563z"/>
	<path fill="#3187C9" d="M403.662,216.487c-2.512-2.446-6.219-3.686-11.018-3.686h-23.997c-3.99,0-7.303,1.265-9.832,3.748
		c-2.479,2.365-3.735,5.785-3.735,10.163v23.711c0,3.457,1.146,6.437,3.394,8.845c2.229,2.443,5.536,3.681,9.829,3.681h26.827
		c3.456,0,6.41-1.283,8.77-3.801c2.402-2.498,3.62-5.921,3.62-10.177v-22.403C407.519,222.339,406.219,218.946,403.662,216.487z
		 M392.075,231.133v13.758c0,1.983-0.791,2.756-2.82,2.756h-15.974c-1.985,0-2.759-0.773-2.759-2.756v-13.758
		c0-2.084,0.813-2.897,2.898-2.897h15.971C391.001,228.236,392.075,228.729,392.075,231.133z"/>
	<path fill="#3187C9" d="M487.441,273.253"/>
	<path fill="#3187C9" d="M434.766,213.308c-1.102-1.421-2.834-2.27-4.633-2.27h-2.283c-3.316,0-6.231,2.121-7.252,5.278
		c-1.748,5.396-4.344,10.045-7.717,13.818c-0.803,0.898-1.245,2.056-1.245,3.26v7.006c0,1.864,1.035,3.54,2.703,4.375
		c0.675,0.338,1.432,0.517,2.187,0.517c1.05,0,2.091-0.347,2.933-0.975c4.179-3.122,7.794-7.357,10.804-12.706
		c0.414-0.782,0.803-1.504,1.174-2.188c2.033-3.759,3.504-6.475,4.379-11.062C436.262,216.619,435.871,214.729,434.766,213.308z"/>
	<path fill="#3187C9" d="M621.943,224.414c-2.354-2.903-5.186-4.928-8.402-6.013c-2.404-0.84-5.939-1.249-10.807-1.249h-84.211
		c-4.871,0-8.404,0.409-10.793,1.244c-3.23,1.09-6.063,3.115-8.422,6.03c-2.561,3.235-3.893,6.468-3.959,9.715v8.586
		c0,2.265,1.842,4.107,4.104,4.107h7.254c2.24,0,4.084-1.824,4.107-4.067l0.047-4.804c0.002-1.619,0.75-3.023,2.314-4.319
		c0.852-0.745,2.371-1.123,4.518-1.123h85.867c2.146,0,3.67,0.378,4.551,1.146c1.533,1.268,2.281,2.673,2.285,4.337l0.047,4.763
		c0.023,2.243,1.867,4.067,4.107,4.067h7.25c2.268,0,4.111-1.842,4.111-4.107v-8.695C625.842,230.892,624.51,227.66,621.943,224.414
		z"/>
	<path fill="#3187C9" d="M343.496,260.833h-77.598c-2.058,0-3.732,1.675-3.732,3.733v8.058c0,2.058,1.675,3.732,3.732,3.732h77.598
		c2.058,0,3.732-1.675,3.732-3.732v-8.058C347.228,262.508,345.553,260.833,343.496,260.833z"/>
	<path fill="#3187C9" d="M342.17,215.202h-8.057c-2.058,0-3.732,1.674-3.732,3.732v7.568c0,0.597-0.485,1.083-1.083,1.083h-65.027
		c-2.058,0-3.732,1.675-3.732,3.732v8.057c0,2.058,1.674,3.732,3.732,3.732h70.021c6.402,0,11.61-5.208,11.61-11.61v-12.562
		C345.903,216.876,344.229,215.202,342.17,215.202z"/>
	<path fill="#3187C9" d="M343.396,316.569c-18.313-15.39-30.574-30.826-32.79-41.25l-10.962-61.479
		c-0.317-1.783-1.863-3.077-3.674-3.077h-8.638c-1.114,0-2.16,0.491-2.871,1.348c-0.712,0.857-1.003,1.976-0.798,3.071
		l12.025,64.321c0.022,0.121,0.056,0.248,0.099,0.406c6.553,22.428,21.379,35.647,40.082,50.599c0.66,0.527,1.487,0.817,2.33,0.817
		c0.139,0,0.278-0.008,0.417-0.023c0.992-0.111,1.881-0.603,2.503-1.383l3.21-4.029
		C346.613,323.022,346.203,318.929,343.396,316.569z"/>
	<path fill="#3187C9" d="M604.754,247.929h-88.787c-2.799,0-5.078,2.279-5.078,5.079v5.363c0,2.801,2.279,5.08,5.078,5.08h88.787
		c2.799,0,5.078-2.279,5.078-5.08v-5.363C609.832,250.208,607.553,247.929,604.754,247.929z"/>
	<path fill="#3187C9" d="M620.826,316.031H499.887c-2.801,0-5.08,2.279-5.08,5.08v5.362c0,2.801,2.279,5.079,5.08,5.079h120.939
		c2.801,0,5.08-2.278,5.08-5.079v-5.362C625.906,318.311,623.627,316.031,620.826,316.031z"/>
	<path fill="#3187C9" d="M563.543,254.36h-6.363c-2.525,0-4.58,2.055-4.58,4.581v62.565c0,2.525,2.055,4.58,4.58,4.58h6.363
		c2.525,0,4.58-2.055,4.58-4.58v-62.565C568.123,256.415,566.068,254.36,563.543,254.36z"/>
	<path fill="#3187C9" d="M563.539,209.861h-6.361c-2.525,0-4.578,2.055-4.578,4.581v11.808h15.523v-11.808
		C568.123,211.917,566.066,209.861,563.539,209.861z"/>
	<path fill="#3187C9" d="M404.702,316.388h-29.764c-1.788,0-3.243-1.455-3.243-3.243v-13.352l-0.092,0.19
		c0-6.724,0.004-12.789,0.004-12.789l-0.026-0.264c-0.122-0.601-0.797-3.665-2.163-5.053l-0.175-0.149
		c-1.79-1.278-3.906-1.993-6.175-2.069c-20.742,0.176-41.008,5.685-63.776,17.335l-6.152,3.147
		c-19.161,9.803-40.663,14.984-62.179,14.984h-8.142c-3.087,0-5.599,2.512-5.599,5.599v5.776c0,2.058,1.674,3.731,3.732,3.731
		h10.009c23.898,0,47.78-5.755,69.063-16.644l6.148-3.147c10.933-5.593,29.666-12.882,46.477-15.019
		c0.983-0.121,1.963,0.18,2.693,0.821c0.738,0.65,1.161,1.586,1.161,2.567v18.762c0,7.676,6.246,13.921,13.923,13.921h34.275
		c2.274,0,4.125-1.852,4.125-4.126v-6.854C408.827,318.239,406.976,316.388,404.702,316.388z"/>
	<path fill="#3187C9" d="M218.545,323.792"/>
	<path fill="#3187C9" d="M485.547,230.259c-1.77-6.556-7.746-11.134-14.535-11.134h-45.67v14.423h45.67
		c0.236,0,0.451,0.133,0.559,0.341c-0.18,0.356-0.861,1.064-1.512,1.552l-0.127,0.11c-20.254,19.682-36.025,27.618-56.426,34.673
		c-2.178,0.754-3.641,2.808-3.641,5.111v3.813c0,1.743,0.847,3.387,2.263,4.399c0.924,0.661,2.012,1.01,3.147,1.01
		c0.596,0,1.185-0.098,1.748-0.289c22.186-7.581,40.374-16.561,62.418-37.845C484.828,242.812,487.225,236.481,485.547,230.259z"/>
	<path fill="#3187C9" d="M601.357,289.082l-0.984-0.575l0.385-4.826l-6.613-3.164c-2.045-1.067-5.473-1.625-7.801-1.625h-69.887
		c-4.602,0-9.938-0.921-13.594-2.344c-28.197-10.984-44.152-21.333-64.352-34.435c-1.082-0.703-2.41-0.951-3.688-0.681
		c-1.262,0.272-2.385,1.045-3.084,2.124l-2.982,4.6c-0.701,1.085-0.947,2.43-0.676,3.689c0.271,1.262,1.049,2.387,2.133,3.086
		c19.529,12.591,39.346,24.799,66.977,35.76c5.748,2.082,11.75,3.25,17.895,3.475h70.164c2.512,0,4.91,0.791,6.934,2.288l7.133,5.28
		l0.848-10.605L601.357,289.082z"/>
	<path fill="#EA5504" d="M608.008,278.862c-9.463,0-17.16,7.699-17.16,17.163c0,9.468,7.697,17.171,17.16,17.171
		c9.471,0,17.174-7.703,17.174-17.171C625.182,286.561,617.479,278.862,608.008,278.862z M608.008,301.838
		c-3.207,0-5.816-2.607-5.816-5.812s2.609-5.81,5.816-5.81s5.814,2.605,5.814,5.81S611.215,301.838,608.008,301.838z"/>
</g>
</svg>
